{"title":"Jungle Book (2016) 1080p Blu-ray x264 AC3 5.1 Hindi+En -DDR","uid":15690022,"size":3277980429,"categoryP":"video","categoryS":"hd___movies","magnet":"?xt=urn:btih:2ce9a4f8e5945f86a61329cd6bc6fda1c3546331&amp;dn=Jungle+Book+%282016%29+1080p+Blu-ray+x264+AC3+5.1+Hindi%2BEn+-DDR&amp;tr=udp%3A%2F%2Ftracker.leechers-paradise.org%3A6969&amp;tr=udp%3A%2F%2Fzer0day.ch%3A1337&amp;tr=udp%3A%2F%2Fopen.demonii.com%3A1337&amp;tr=udp%3A%2F%2Ftracker.coppersurfer.tk%3A6969&amp;tr=udp%3A%2F%2Fexodus.desync.com%3A6969","seeders":40,"leechers":26,"uploader":"SaM","files":5,"time":1472393221,"description":"1080p Blu-ray Rip x264\r\n\r\nAC3 5.1 Hindi &amp; AAC 5.1 English\r\n\r\nHindi, Arabic, English &amp; impaired Subtitles \r\n \nhttp://extraimago.com/image/wjP5 \nhttp://extraimago.com/image/wjPD \nhttp://extraimago.com/image/wjPF \nhttp://extraimago.com/image/wjPH \nhttp://extraimago.com/image/wjPk \nhttp://extraimago.com/image/wjPo \nhttp://extraimago.com/image/wjPt \nhttp://extraimago.com/image/wjPx \nhttp://extraimago.com/image/wjP6\r\n\r\nSpecs:\r\nSource: BD50 @ DDR\r\n\r\nFormat : Matroska\r\nFile size : 2.99 GiB\r\nDuration : 1 h 45 min\r\nOverall bit rate : 4 044 kb/s\r\n\r\n\r\nVideo\r\nFormat : AVC\r\nFormat/Info : Advanced Video Codec\r\nFormat profile :   \r\nFormat settings, CABAC : Yes\r\nFormat settings, ReFrames : 4 frames\r\nCodec ID : V_MPEG4/ISO/AVC\r\nDuration : 1h 45mn\r\nBit rate : 3 191 Kbps\r\nWidth : 1 920 pixels\r\nHeight : 1 040 pixels\r\nDisplay aspect ratio : 1.85:1\r\nFrame rate mode : Constant\r\nFrame rate : 23.976 (24000/1001) fps\r\ncolor space : YUV\r\nChroma subsampling : 4:2:0\r\nBit depth : 8 bits\r\nScan type : Progressive\r\nBits/(Pixel*Frame) : 0.067\r\nStream size : 2.36 GiB (79%)\r\ncolor primaries : BT.709\r\nTransfer characteristics : BT.709\r\nMatrix coefficients : BT.709\r\n\r\nAudio #1\r\nFormat : AC-3\r\nFormat/Info : Audio Coding 3\r\nMode extension : CM (complete main)\r\nFormat settings, Endianness : Big\r\nCodec ID : A_AC3\r\nDuration : 1 h 45 min\r\nBit rate mode : Constant\r\nBit rate : 640 kb/s\r\nChannel(s) : 6 channels\r\nChannel positions : Front: L C R, Side: L R, LFE\r\nSampling rate : 48.0 kHz\r\nFrame rate : 31.250 FPS (1536 spf)\r\nCompression mode : Lossy\r\nStream size : 485 MiB (16%)\r\nLanguage : Hindi\r\nDefault : No\r\nForced : No\r\n\r\n\r\nAudio #2\r\nFormat : AAC\r\nFormat/Info : Advanced Audio Codec\r\nFormat profile : LC\r\nCodec ID : A_AAC\r\nDuration : 1h 45mn\r\nBit rate : 192 Kbps\r\nChannel(s) : 6 channels\r\nChannel positions : Front: L C R, Side: L R, LFE\r\nSampling rate : 48.0 KHz\r\nFrame rate : 46.875 fps (1024 spf)\r\nCompression mode : Lossy\r\nDelay relative to video : 9ms\r\nStream size : 145 MiB (5%)\r\nLanguage : English\r\nDefault : Yes\r\nForced : No\r\n\r\n\r\n\r\nChapters : YES\r\n\r\nSAMPLE Included","torrent":{"xt":"urn:btih:2ce9a4f8e5945f86a61329cd6bc6fda1c3546331","amp;dn":"Jungle+Book+%282016%29+1080p+Blu-ray+x264+AC3+5.1+Hindi%2BEn+-DDR","amp;tr":["udp%3A%2F%2Ftracker.leechers-paradise.org%3A6969","udp%3A%2F%2Fzer0day.ch%3A1337","udp%3A%2F%2Fopen.demonii.com%3A1337","udp%3A%2F%2Ftracker.coppersurfer.tk%3A6969","udp%3A%2F%2Fexodus.desync.com%3A6969"],"infoHash":"2ce9a4f8e5945f86a61329cd6bc6fda1c3546331","infoHashBuffer":{"type":"Buffer","data":[44,233,164,248,229,148,95,134,166,19,41,205,107,198,253,161,195,84,99,49]},"announce":[],"urlList":[]}}